<svg width="12" height="17" viewBox="0 0 12 17" fill="none" xmlns="http://www.w3.org/2000/svg">
<path d="M5.66667 0C2.53704 0 0 2.53704 0 5.66667C0 8.69097 5.20908 16.541 5.43093 16.8739C5.48349 16.9527 5.57196 17 5.66667 17C5.76137 17 5.84984 16.9527 5.9024 16.8739C6.12425 16.541 11.3333 8.69097 11.3333 5.66667C11.3333 2.53704 8.7963 0 5.66667 0ZM5.66667 16.199C4.63392 14.6061 0.566667 8.17133 0.566667 5.66667C0.56996 2.85136 2.85136 0.56996 5.66667 0.566667C8.48197 0.56996 10.7634 2.85136 10.7667 5.66667C10.7667 8.17077 6.69942 14.6061 5.66667 16.199Z" fill="white"/>
</svg>
